HIERARCHY
ROOT joint_Root
{
	OFFSET 0.0 0.0 0.0
	CHANNELS 6 Xposition Yposition Zposition Zrotation Xrotation Yrotation 
	JOINT Hips
	{
		OFFSET 4.5925 91.4895 -427.239
		CHANNELS 6 Xposition Yposition Zposition Zrotation Xrotation Yrotation 
		JOINT Spine
		{
			OFFSET 15.7357 0.0 0.0
			CHANNELS 6 Xposition Yposition Zposition Zrotation Xrotation Yrotation 
			JOINT Chest
			{
				OFFSET 8.98455 -0.406207 0.0
				CHANNELS 6 Xposition Yposition Zposition Zrotation Xrotation Yrotation 
				JOINT Neck
				{
					OFFSET 16.3773 0.0 0.0
					CHANNELS 6 Xposition Yposition Zposition Zrotation Xrotation Yrotation 
					JOINT Head
					{
						OFFSET 6.45672 0.0 0.0
						CHANNELS 6 Xposition Yposition Zposition Zrotation Xrotation Yrotation 
						End Site
						{
							OFFSET 0.0 0.0 0.0
						}
					}
				}
				JOINT Shoulder_L
				{
					OFFSET 12.9942 -0.242716 4.98039
					CHANNELS 6 Xposition Yposition Zposition Zrotation Xrotation Yrotation 
					JOINT UpperArm_L
					{
						OFFSET 5.34809 0.0 0.0
						CHANNELS 6 Xposition Yposition Zposition Zrotation Xrotation Yrotation 
						JOINT LowerArm_L
						{
							OFFSET 24.3286 1.87007e-05 0.0
							CHANNELS 6 Xposition Yposition Zposition Zrotation Xrotation Yrotation 
							JOINT Hand_L
							{
								OFFSET 22.2916 0.0 0.0
								CHANNELS 6 Xposition Yposition Zposition Zrotation Xrotation Yrotation 
								End Site
								{
									OFFSET 0.0 0.0 0.0
								}
							}
						}
					}
				}
				JOINT Shoulder_R
				{
					OFFSET 12.9945 -0.242716 -4.98039
					CHANNELS 6 Xposition Yposition Zposition Zrotation Xrotation Yrotation 
					JOINT UpperArm_R
					{
						OFFSET -5.34813 0.0 0.0
						CHANNELS 6 Xposition Yposition Zposition Zrotation Xrotation Yrotation 
						JOINT LowerArm_R
						{
							OFFSET -24.3289 0.000322201 0.0
							CHANNELS 6 Xposition Yposition Zposition Zrotation Xrotation Yrotation 
							JOINT Hand_R
							{
								OFFSET -22.2915 -0.000108084 0.0
								CHANNELS 6 Xposition Yposition Zposition Zrotation Xrotation Yrotation 
								End Site
								{
									OFFSET 0.0 0.0 0.0
								}
							}
						}
					}
				}
			}
		}
		JOINT UpperLeg_L
		{
			OFFSET -2.19248 -6.46944 0.0
			CHANNELS 6 Xposition Yposition Zposition Zrotation Xrotation Yrotation 
			JOINT LowerLeg_L
			{
				OFFSET 39.0811 0.0 -1.23785e-05
				CHANNELS 6 Xposition Yposition Zposition Zrotation Xrotation Yrotation 
				JOINT Foot_L
				{
					OFFSET 40.9854 0.0 -1.26872e-05
					CHANNELS 6 Xposition Yposition Zposition Zrotation Xrotation Yrotation 
					JOINT Toes_L
					{
						OFFSET 11.7543 0.0 0.0
						CHANNELS 6 Xposition Yposition Zposition Zrotation Xrotation Yrotation 
						End Site
						{
							OFFSET 0.0 0.0 0.0
						}
					}
				}
			}
		}
		JOINT UpperLeg_R
		{
			OFFSET -2.19251 6.46944 0.0
			CHANNELS 6 Xposition Yposition Zposition Zrotation Xrotation Yrotation 
			JOINT LowerLeg_R
			{
				OFFSET -39.0811 -0.00228153 -0.0401928
				CHANNELS 6 Xposition Yposition Zposition Zrotation Xrotation Yrotation 
				JOINT Foot_R
				{
					OFFSET -40.9854 0.0 0.0
					CHANNELS 6 Xposition Yposition Zposition Zrotation Xrotation Yrotation 
					JOINT Toes_R
					{
						OFFSET -11.7543 0.0 0.0
						CHANNELS 6 Xposition Yposition Zposition Zrotation Xrotation Yrotation 
						End Site
						{
							OFFSET 0.0 0.0 0.0
						}
					}
				}
			}
		}
	}
}
MOTION
Frames:	7
Frame Time:	0.0333333
0.000000 0.000000 0.000000 0.000000 0.000000 -0.000000 -3.784030 85.443500 43.337100 -87.311500 -4.142150 176.498000 15.735700 0.000005 -0.000001 49.118500 82.612500 -46.825600 8.984550 -0.406207 -0.000000 3.649130 -9.740730 4.900560 16.377300 -0.000001 -0.000001 -1.743950 -0.253050 -0.447709 6.456720 -0.000001 -0.000000 -1.337850 3.372950 2.970230 12.994200 -0.242716 4.980390 -90.797100 3.049150 -75.342700 5.348090 -0.000007 -0.000001 -59.667800 31.295100 -16.609400 24.328600 0.000019 0.000005 10.196200 -0.218174 -91.214900 22.291600 -0.000001 0.000005 8.826120 5.525320 -7.590720 12.994500 -0.242716 -4.980390 86.819600 11.954500 -74.983700 -5.348130 -0.000001 -0.000004 -59.906400 29.505100 17.372400 -24.328900 0.000322 -0.000009 -3.779590 -0.687468 -79.699500 -22.291500 -0.000108 -0.000004 26.768400 5.661090 -16.183000 -2.192480 -6.469440 -0.000000 -171.058000 -10.253900 10.010000 39.081100 -0.000007 -0.000012 -0.003847 0.005956 32.862600 40.985400 -0.000006 -0.000013 1.270130 11.088500 -71.021400 11.754300 -0.000000 0.000003 -0.163200 -0.580170 -41.200100 -2.192510 6.469440 -0.000001 -168.769000 16.396400 140.040000 -39.081100 -0.002282 -0.040193 -0.335041 0.319669 46.622400 -40.985400 0.000008 0.000006 7.980780 -1.244230 -62.888300 -11.754300 -0.000006 -0.000006 -0.011730 -0.116138 -21.307200
0.000000 0.000000 0.000000 0.000000 0.000000 -0.000000 -3.431270 84.813400 37.107900 -86.994600 -2.549870 179.018000 15.735700 0.000005 -0.000001 57.813600 82.947300 -55.138700 8.984550 -0.406207 -0.000000 4.385950 -7.580400 5.640700 16.377300 -0.000001 -0.000001 -0.871030 -0.010511 -0.916568 6.456720 -0.000001 -0.000000 -1.385020 2.966660 0.305307 12.994200 -0.242716 4.980390 -90.820300 2.903980 -74.218800 5.348090 -0.000007 -0.000001 -68.082400 31.248500 -7.755910 24.328600 0.000019 0.000005 9.273830 3.381190 -70.137000 22.291600 -0.000001 0.000005 10.010100 5.533220 -7.935550 12.994500 -0.242716 -4.980390 86.531600 13.082800 -75.010300 -5.348130 -0.000001 -0.000004 -61.160300 32.916600 7.475560 -24.328900 0.000322 -0.000009 -2.314540 -0.366534 -81.000100 -22.291500 -0.000108 -0.000004 27.355400 5.658960 -15.940200 -2.192480 -6.469440 -0.000000 -170.092000 -9.940300 8.634400 39.081100 -0.000007 -0.000012 0.056464 -0.058081 44.189600 40.985400 -0.000006 -0.000013 1.260650 9.490480 -59.728500 11.754300 -0.000000 0.000003 -0.271656 -0.752672 -49.468900 -2.192510 6.469440 -0.000001 -170.136000 13.436300 145.014000 -39.081100 -0.002282 -0.040193 -0.440102 0.347117 51.941400 -40.985400 0.000008 0.000006 8.274740 -3.901250 -69.771200 -11.754300 -0.000006 -0.000006 -0.003441 -0.045496 -18.423500
0.000000 0.000000 0.000000 0.000000 0.000000 -0.000000 -3.029520 84.933900 31.817600 -87.107600 -2.349110 -178.801000 15.735700 0.000005 -0.000001 65.834100 83.132300 -62.931600 8.984550 -0.406207 -0.000000 4.935820 -5.683690 6.047520 16.377300 -0.000001 -0.000001 -0.161253 -0.527013 -0.699132 6.456720 -0.000001 -0.000000 -1.077150 2.548960 -2.103570 12.994200 -0.242716 4.980390 -90.803900 2.909410 -74.546300 5.348090 -0.000007 -0.000001 -70.851400 31.631900 -0.165635 24.328600 0.000019 0.000005 11.800000 8.264770 -55.474200 22.291600 -0.000001 0.000005 8.106640 5.553830 -8.894540 12.994500 -0.242716 -4.980390 86.873600 12.534800 -75.873800 -5.348130 -0.000001 -0.000004 -61.984300 36.501800 -2.774460 -24.328900 0.000322 -0.000009 0.962009 0.043942 -87.382300 -22.291500 -0.000108 -0.000004 27.003000 5.655430 -15.557000 -2.192480 -6.469440 -0.000000 -171.050000 -6.223210 2.461860 39.081100 -0.000007 -0.000012 0.089392 -0.055921 57.968900 40.985400 -0.000006 -0.000013 -2.081530 4.923710 -45.864600 11.754300 -0.000000 0.000003 -0.036183 -0.244536 -26.611700 -2.192510 6.469440 -0.000001 -171.131000 15.880900 151.088000 -39.081100 -0.002282 -0.040193 -0.411311 0.313333 52.917000 -40.985400 0.000008 0.000006 9.234180 -2.534050 -74.754300 -11.754300 -0.000006 -0.000006 -0.001282 -0.019329 -17.359100
0.000000 0.000000 0.000000 0.000000 0.000000 -0.000000 -2.826700 85.763500 27.460100 -87.733300 -1.875020 -178.408000 15.735700 0.000005 -0.000001 75.867400 83.571300 -73.196600 8.984550 -0.406207 -0.000000 4.788580 -3.202770 5.470640 16.377300 -0.000001 -0.000001 -0.387169 -1.268710 0.315156 6.456720 -0.000001 -0.000000 -0.778815 1.374160 -2.396220 12.994200 -0.242716 4.980390 -90.882200 3.146100 -74.327000 5.348090 -0.000007 -0.000001 -68.046100 38.320400 7.679640 24.328600 0.000019 0.000005 18.152100 12.003100 -57.611600 22.291600 -0.000001 0.000005 5.597890 5.592780 -10.924600 12.994500 -0.242716 -4.980390 87.654600 10.523900 -77.361000 -5.348130 -0.000001 -0.000004 -61.122300 38.508800 -13.267600 -24.328900 0.000322 -0.000009 1.589730 -0.156319 -95.627300 -22.291500 -0.000108 -0.000004 25.356500 5.651040 -15.114100 -2.192480 -6.469440 -0.000000 -172.973000 -4.198820 -5.815420 39.081100 -0.000007 -0.000012 0.052989 -0.019823 69.484000 40.985400 -0.000006 -0.000013 -1.284900 -0.102579 -42.170700 11.754300 -0.000000 0.000003 -0.009072 -0.096576 -20.510600 -2.192510 6.469440 -0.000001 -172.539000 18.006600 156.337000 -39.081100 -0.002282 -0.040193 -0.193215 0.161187 50.632800 -40.985400 0.000008 0.000006 10.910700 -0.671398 -77.481000 -11.754300 -0.000006 -0.000006 -0.000686 -0.010834 -17.013900
0.000000 0.000000 0.000000 0.000000 0.000000 -0.000000 -2.875060 87.430300 22.919000 -88.651000 -0.369222 -177.466000 15.735700 0.000005 -0.000001 92.203300 83.556400 -90.150200 8.984550 -0.406207 -0.000000 5.107070 0.446870 4.081650 16.377300 -0.000001 -0.000001 -0.382451 -1.936080 1.293520 6.456720 -0.000001 -0.000000 -1.231280 -1.283570 -0.550550 12.994200 -0.242716 4.980390 -90.485400 1.571880 -72.834300 5.348090 -0.000007 -0.000001 -66.720100 45.937700 14.365400 24.328600 0.000019 0.000005 17.139100 9.408970 -62.072500 22.291600 -0.000001 0.000005 3.325810 5.599340 -11.302200 12.994500 -0.242716 -4.980390 88.345600 8.364330 -78.770500 -5.348130 -0.000001 -0.000004 -59.577300 37.528000 -20.353600 -24.328900 0.000322 -0.000009 -1.682700 0.426184 -104.182000 -22.291500 -0.000108 -0.000004 23.620900 5.649610 -14.978200 -2.192480 -6.469440 -0.000000 -175.124000 -4.654360 -10.996000 39.081100 -0.000007 -0.000012 -0.015908 0.004151 75.399100 40.985400 -0.000006 -0.000013 4.448510 -4.232220 -47.162700 11.754300 -0.000000 0.000003 -0.009289 -0.098259 -20.579400 -2.192510 6.469440 -0.000001 -175.082000 19.599900 164.196000 -39.081100 -0.002282 -0.040193 0.068123 -0.065597 44.675500 -40.985400 0.000008 0.000006 12.734800 2.125140 -78.260900 -11.754300 -0.000006 -0.000006 -0.001057 -0.016216 -17.232600
0.000000 0.000000 0.000000 0.000000 0.000000 -0.000000 -3.058830 89.543500 18.459500 -89.868300 0.643980 -177.293000 15.735700 0.000005 -0.000001 106.172000 83.301600 -104.882000 8.984550 -0.406207 -0.000000 5.068760 3.693180 2.414260 16.377300 -0.000001 -0.000001 -0.339933 -2.664410 1.827090 6.456720 -0.000001 -0.000000 -1.309190 -3.961360 1.172450 12.994200 -0.242716 4.980390 -89.732700 -0.804765 -71.627100 5.348090 -0.000007 -0.000001 -67.093200 49.046400 20.555100 24.328600 0.000019 0.000005 16.591000 7.293330 -66.921900 22.291600 -0.000001 0.000005 1.203460 5.598680 -11.263600 12.994500 -0.242716 -4.980390 88.769600 6.720070 -79.599900 -5.348130 -0.000001 -0.000004 -57.880400 34.640800 -24.450500 -24.328900 0.000322 -0.000009 -5.179270 1.974210 -110.806000 -22.291500 -0.000108 -0.000004 21.212900 5.651370 -15.143900 -2.192480 -6.469440 -0.000000 -177.806000 -4.613980 -16.135800 39.081100 -0.000007 -0.000012 -0.066019 0.016008 76.375700 40.985400 -0.000006 -0.000013 7.230300 -9.243790 -49.239100 11.754300 -0.000000 0.000003 -0.007964 -0.087749 -20.150000 -2.192510 6.469440 -0.000001 -178.275000 20.197700 171.569000 -39.081100 -0.002282 -0.040193 0.057786 -0.072429 36.959900 -40.985400 0.000008 0.000006 11.764300 5.618520 -74.839800 -11.754300 -0.000006 -0.000006 -0.840038 -1.007310 -19.101000
0.000000 0.000000 0.000000 0.000000 0.000000 -0.000000 -3.361370 91.594400 14.466100 -91.228000 1.231560 -178.812000 15.735700 0.000005 -0.000001 116.685000 83.415000 -116.196000 8.984550 -0.406207 -0.000000 3.993720 5.889650 0.771503 16.377300 -0.000001 -0.000001 -0.192985 -3.250820 1.851800 6.456720 -0.000001 -0.000000 -1.052610 -5.977260 2.256410 12.994200 -0.242716 4.980390 -88.850200 -3.215910 -70.316400 5.348090 -0.000007 -0.000001 -68.011200 49.749400 26.095100 24.328600 0.000019 0.000005 16.313900 5.688580 -71.290800 22.291600 -0.000001 0.000005 0.125877 5.593800 -10.978000 12.994500 -0.242716 -4.980390 89.080700 5.262990 -80.077200 -5.348130 -0.000001 -0.000004 -56.648500 31.596300 -26.924700 -24.328900 0.000322 -0.000009 -5.387870 2.492530 -114.755000 -22.291500 -0.000108 -0.000004 19.663700 5.648800 -14.901700 -2.192480 -6.469440 -0.000000 179.293000 -3.442900 -22.009600 39.081100 -0.000007 -0.000012 -0.096544 0.028826 73.379000 40.985400 -0.000006 -0.000013 8.356010 -11.277600 -51.885600 11.754300 -0.000000 0.000003 -0.008019 -0.088199 -20.168300 -2.192510 6.469440 -0.000001 178.861000 22.002900 175.665000 -39.081100 -0.002282 -0.040193 0.040200 -0.062155 30.696300 -40.985400 0.000008 0.000006 10.831000 9.997150 -69.542800 -11.754300 -0.000006 -0.000006 -0.013765 -0.129898 -21.871100
